<?xml version="1.0" encoding="UTF-8"?>
<svg xmlns="http://www.w3.org/2000/svg" xmlns:xlink="http://www.w3.org/1999/xlink" width="3882" height="3882" viewBox="0 0 3882 3882">
<path fill-rule="nonzero" fill="rgb(100%, 100%, 100%)" fill-opacity="0.2" d="M 0 0 L 3881.730469 0 C 3881.730469 1293.910156 3881.730469 2587.820312 3881.730469 3881.730469 C 2587.820312 3881.730469 1293.910156 3881.730469 0 3881.730469 C 0 2587.820312 0 1293.910156 0 0 "/>
<path fill-rule="nonzero" fill="rgb(13.330078%, 19.604492%, 24.705505%)" fill-opacity="0.2" d="M 2518.21875 958.570312 L 2617.820312 1011.339844 L 2660.878906 1051.308594 C 2665.820312 1055.910156 2683.808594 1072.53125 2688.769531 1077.089844 L 2732 1116.878906 L 2792.410156 1212.039062 L 2617.921875 1400.179688 L 2617.921875 1400.191406 C 2617.871094 1400.140625 2617.820312 1400.089844 2617.769531 1400.039062 L 2344.558594 1147.039062 Z M 2802.761719 1822.550781 C 2795.710938 1822.550781 2788.941406 1825.351562 2783.960938 1830.339844 C 2778.96875 1835.320312 2776.171875 1842.089844 2776.171875 1849.140625 L 2776.171875 1969.660156 C 2776.171875 1976.710938 2778.96875 1983.480469 2783.960938 1988.460938 C 2788.941406 1993.449219 2795.710938 1996.25 2802.761719 1996.25 L 2845.898438 1996.25 C 2860.589844 1996.25 2872.488281 1984.351562 2872.488281 1969.660156 L 2872.488281 1849.140625 C 2872.488281 1834.449219 2860.589844 1822.550781 2845.898438 1822.550781 Z M 2271.058594 1226.808594 L 2544.058594 1479.628906 C 2544.089844 1479.660156 2544.128906 1479.691406 2544.160156 1479.71875 L 2544.148438 1479.71875 L 1672.96875 2419.050781 L 1422.179688 2419.269531 L 1402.730469 2169.238281 Z M 2508.050781 851.320312 C 2495.019531 851.320312 2482.179688 856.640625 2472.890625 866.71875 L 1318.328125 2119.800781 C 1309.328125 2129.570312 1304.808594 2142.640625 1305.839844 2155.890625 L 1330.308594 2470.429688 C 1331.300781 2483.089844 1337.128906 2494.210938 1345.851562 2502.121094 C 1354.378906 2510.03125 1365.789062 2514.859375 1378.339844 2514.859375 L 1378.378906 2514.871094 L 1693.878906 2514.601562 L 1693.878906 2514.589844 C 1707.160156 2514.589844 1719.839844 2509.039062 1728.871094 2499.300781 L 2887.53125 1250.019531 C 2902.289062 1234.109375 2904.46875 1210.238281 2892.839844 1191.910156 L 2809.308594 1060.359375 C 2807.070312 1056.839844 2804.390625 1053.640625 2801.328125 1050.820312 L 2753.480469 1006.78125 C 2748.578125 1002.269531 2730.789062 985.820312 2725.898438 981.28125 L 2678.25 937.03125 C 2675.191406 934.199219 2671.789062 931.78125 2668.101562 929.828125 L 2530.398438 856.878906 C 2523.328125 853.128906 2515.660156 851.320312 2508.050781 851.320312 Z M 2384.058594 2562.839844 L 1382.109375 2562.839844 C 1367.351562 2562.839844 1355.390625 2574.800781 1355.390625 2589.558594 L 1355.390625 2633.691406 C 1355.390625 2648.449219 1367.351562 2660.421875 1382.109375 2660.421875 L 2384.058594 2660.421875 C 2391.148438 2660.421875 2397.949219 2657.601562 2402.960938 2652.589844 C 2407.96875 2647.578125 2410.78125 2640.78125 2410.78125 2633.691406 L 2410.78125 2589.558594 C 2410.78125 2582.46875 2407.96875 2575.679688 2402.960938 2570.660156 C 2397.949219 2565.648438 2391.148438 2562.839844 2384.058594 2562.839844 Z M 1626.441406 1121.371094 C 1624.960938 1121.371094 1623.5 1121.488281 1622.058594 1121.730469 L 1207.441406 1123.109375 L 1206.898438 1123.109375 C 1156.078125 1123.851562 1069.679688 1121.730469 1022.269531 1170.640625 C 975.269531 1219.109375 978.296875 1306.03125 978.160156 1358.109375 L 978.160156 1358.320312 L 980.472656 2755.851562 C 980.195312 2796.640625 976.683594 2871.789062 1014.820312 2913.78125 C 1043.320312 2945.171875 1085.308594 2950.699219 1113.910156 2952.242188 C 1121.921875 2952.671875 1130.089844 2952.820312 1138.121094 2952.820312 C 1147.058594 2952.820312 1155.828125 2952.636719 1164 2952.472656 L 1164 2952.476562 L 1926.71875 2951.347656 L 2689.390625 2951.097656 L 2689.398438 2951.097656 C 2697.199219 2951.242188 2705.539062 2951.398438 2714.070312 2951.398438 C 2722.488281 2951.398438 2731.089844 2951.246094 2739.5 2950.777344 L 2739.5 2950.773438 C 2768.101562 2949.179688 2810.078125 2943.578125 2838.53125 2912.136719 L 2838.519531 2912.136719 C 2876.578125 2870.078125 2872.929688 2794.941406 2872.589844 2754.148438 L 2872.578125 2754.148438 L 2872.53125 2402.320312 L 2872.519531 2402.320312 C 2872.558594 2401.769531 2872.570312 2401.210938 2872.570312 2400.648438 L 2872.570312 2097.210938 C 2872.570312 2082.519531 2860.671875 2070.621094 2845.980469 2070.621094 L 2802.839844 2070.621094 C 2795.789062 2070.621094 2789.019531 2073.421875 2784.039062 2078.410156 C 2779.050781 2083.390625 2776.25 2090.160156 2776.25 2097.210938 L 2776.25 2400.648438 C 2776.25 2401.738281 2776.308594 2402.828125 2776.449219 2403.898438 L 2776.429688 2403.898438 L 2776.488281 2754.160156 L 2776.488281 2754.539062 C 2776.980469 2814.769531 2774 2840.21875 2767.269531 2847.660156 C 2766.679688 2848.320312 2760.480469 2853.359375 2734.148438 2854.828125 C 2727.878906 2855.179688 2721.308594 2855.300781 2714.320312 2855.300781 C 2706.949219 2855.300781 2699.121094 2855.160156 2690.71875 2855.011719 L 2689.839844 2855 L 2689.789062 2855 L 1983.289062 2855.230469 C 1982.46875 2855.191406 1981.648438 2855.171875 1980.820312 2855.171875 C 1980.800781 2855.171875 1980.769531 2855.171875 1980.75 2855.171875 L 1926.578125 2855.25 L 1872.488281 2855.269531 C 1871.640625 2855.269531 1870.789062 2855.289062 1869.949219 2855.339844 L 1163.441406 2856.378906 L 1163.398438 2856.378906 L 1162.519531 2856.390625 C 1153.71875 2856.570312 1145.558594 2856.71875 1137.878906 2856.71875 C 1131.28125 2856.71875 1125.039062 2856.609375 1119.089844 2856.28125 C 1092.761719 2854.871094 1086.550781 2849.839844 1085.960938 2849.179688 C 1079.210938 2841.75 1076.191406 2816.300781 1076.570312 2756.070312 L 1076.570312 2755.691406 L 1074.261719 1358.359375 C 1074.441406 1287.480469 1077.789062 1251.421875 1091.261719 1237.53125 L 1091.261719 1237.539062 C 1104.289062 1224.089844 1138.429688 1220.21875 1208.039062 1219.199219 L 1655.109375 1217.71875 L 1730.058594 1217.71875 C 1744.738281 1217.71875 1756.648438 1205.808594 1756.648438 1191.121094 L 1756.648438 1147.960938 C 1756.648438 1140.910156 1753.851562 1134.140625 1748.859375 1129.160156 C 1743.878906 1124.171875 1737.109375 1121.371094 1730.058594 1121.371094 Z M 1626.441406 1121.371094 "/>
</svg>
