<?xml version="1.0" encoding="UTF-8"?>
<svg xmlns="http://www.w3.org/2000/svg" xmlns:xlink="http://www.w3.org/1999/xlink" width="3814" height="3814" viewBox="0 0 3814 3814">
<path fill-rule="nonzero" fill="rgb(100%, 100%, 100%)" fill-opacity="0.2" d="M 0 0 L 0 3813.191406 L 3813.128906 3813.132812 L 3813.128906 0.0585938 L 0 0 L 0 0.0585938 Z M 0 0 "/>
<path fill-rule="nonzero" fill="rgb(13.330078%, 19.604492%, 24.705505%)" fill-opacity="0.2" d="M 2343.488281 1195.699219 C 2174.359375 1195.699219 2040.121094 1339.078125 2040.121094 1512.371094 C 2040.121094 1685.679688 2174.390625 1829.058594 2343.511719 1829.058594 C 2512.628906 1829.058594 2646.898438 1685.679688 2646.898438 1512.371094 C 2646.898438 1339.078125 2512.640625 1195.699219 2343.519531 1195.699219 Z M 1519.96875 1120.789062 C 1519.980469 1120.789062 1519.96875 1120.789062 1519.96875 1120.789062 C 1328.25 1120.789062 1175.871094 1283.398438 1175.871094 1480.410156 C 1175.871094 1677.421875 1328.460938 1840.019531 1520.179688 1840.019531 C 1711.898438 1840.019531 1864.480469 1677.421875 1864.480469 1480.410156 C 1864.480469 1283.398438 1712.011719 1120.789062 1520.289062 1120.789062 Z M 2142.929688 1818.03125 L 2142.589844 1818.03125 C 2140.019531 1818.03125 2137.449219 1818.378906 2134.910156 1819.019531 C 2089.421875 1830.449219 2040.289062 1842.449219 1993.679688 1860.519531 L 1993.808594 1860.550781 C 2058.910156 1893.851562 2118.429688 1941.421875 2158.050781 2014.019531 C 2225.199219 2137.050781 2227.460938 2324.800781 2222.800781 2497.371094 L 2783.910156 2497.660156 C 2853.621094 2497.589844 2910.378906 2442.429688 2913.011719 2373.359375 L 2913.019531 2372.96875 C 2916.230469 2231.210938 2912.261719 2088.820312 2861.890625 1996.53125 C 2797.730469 1878.988281 2663.519531 1847.328125 2551.421875 1819.109375 C 2548.558594 1818.378906 2545.640625 1818.03125 2542.738281 1818.03125 C 2534.988281 1818.03125 2527.359375 1820.558594 2521.089844 1825.371094 L 2343.121094 1961.839844 L 2343.121094 1961.871094 L 2165.238281 1825.300781 C 2158.96875 1820.480469 2151.351562 1818.011719 2143.601562 1818.011719 Z M 1289.671875 1837.859375 L 1289.410156 1837.859375 C 1286.75 1837.859375 1284.089844 1838.179688 1281.460938 1838.839844 L 1281.441406 1838.851562 C 1151.679688 1871.488281 999.707031 1907.640625 927.089844 2040.679688 L 927.078125 2040.699219 C 868.085938 2148.761719 864.917969 2317.78125 869.15625 2485.691406 L 869.179688 2486.371094 C 871.808594 2555.429688 928.628906 2610.621094 998.339844 2610.660156 L 2041.558594 2610.691406 C 2111.261719 2610.621094 2168.078125 2555.429688 2170.710938 2486.371094 L 2170.738281 2485.691406 C 2174.980469 2317.78125 2171.808594 2148.761719 2112.808594 2040.699219 L 2112.800781 2040.679688 C 2040.191406 1907.640625 1888.21875 1871.488281 1758.449219 1838.851562 L 1758.429688 1838.839844 C 1755.550781 1838.121094 1752.691406 1837.789062 1749.78125 1837.789062 L 1749.378906 1837.800781 C 1741.699219 1837.761719 1734.160156 1840.371094 1727.941406 1845.140625 L 1519.730469 2004.789062 L 1311.949219 1845.140625 C 1305.691406 1840.339844 1298.089844 1837.839844 1290.351562 1837.839844 Z M 1289.671875 1837.859375 "/>
</svg>
