<?xml version="1.0" encoding="UTF-8"?>
<svg xmlns="http://www.w3.org/2000/svg" xmlns:xlink="http://www.w3.org/1999/xlink" width="3835" height="3835" viewBox="0 0 3835 3835">
<path fill-rule="nonzero" fill="rgb(100%, 100%, 100%)" fill-opacity="0.2" d="M 0 0 L 0 3834.914062 L 3834.851562 3834.855469 L 3834.851562 0.0585938 L 0 0 L 0 0.0585938 Z M 0 0 "/>
<path fill-rule="nonzero" fill="rgb(13.330078%, 19.604492%, 24.705505%)" fill-opacity="0.2" d="M 1293.101562 1475.230469 L 1293.148438 1475.230469 C 1386.660156 1475.230469 1464.53125 1555.140625 1464.53125 1656.339844 C 1464.53125 1757.539062 1386.660156 1837.460938 1293.148438 1837.460938 C 1199.640625 1837.460938 1121.769531 1757.539062 1121.769531 1656.339844 C 1121.769531 1555.140625 1199.578125 1475.230469 1293.089844 1475.230469 Z M 2519.328125 1475.230469 L 2519.449219 1475.230469 C 2612.960938 1475.230469 2690.769531 1555.140625 2690.769531 1656.339844 C 2690.769531 1757.539062 2612.898438 1837.460938 2519.390625 1837.460938 C 2425.878906 1837.460938 2348.011719 1757.539062 2348.011719 1656.339844 C 2348.011719 1555.140625 2425.808594 1475.230469 2519.320312 1475.230469 Z M 1906.230469 1420.441406 L 1906.300781 1420.441406 C 2016.308594 1420.441406 2107.539062 1514.410156 2107.539062 1632.929688 C 2107.539062 1751.449219 2016.28125 1845.410156 1906.269531 1845.410156 C 1796.261719 1845.410156 1705 1751.449219 1705 1632.929688 C 1705 1514.410156 1796.210938 1420.441406 1906.21875 1420.441406 Z M 1293.070312 1424.351562 C 1293.089844 1424.351562 1293.070312 1424.351562 1293.070312 1424.351562 C 1169.171875 1424.351562 1070.878906 1529.390625 1070.878906 1656.339844 C 1070.878906 1783.308594 1169.25 1888.351562 1293.148438 1888.351562 C 1417.050781 1888.351562 1515.410156 1783.308594 1515.410156 1656.339844 C 1515.410156 1529.390625 1417.109375 1424.351562 1293.199219 1424.351562 Z M 2519.328125 1424.351562 C 2519.339844 1424.351562 2519.328125 1424.351562 2519.328125 1424.351562 C 2395.429688 1424.351562 2297.128906 1529.390625 2297.128906 1656.339844 C 2297.128906 1783.308594 2395.488281 1888.351562 2519.390625 1888.351562 C 2643.289062 1888.351562 2741.660156 1783.308594 2741.660156 1656.339844 C 2741.660156 1529.390625 2643.320312 1424.351562 2519.410156 1424.351562 Z M 1906.179688 1369.46875 C 1906.238281 1369.46875 1906.179688 1369.46875 1906.179688 1369.46875 C 1765.730469 1369.46875 1654.019531 1488.589844 1654.019531 1632.929688 C 1654.019531 1777.25 1765.820312 1896.378906 1906.269531 1896.378906 C 2046.71875 1896.378906 2158.511719 1777.25 2158.511719 1632.929688 C 2158.511719 1488.589844 2046.828125 1369.46875 1906.378906 1369.46875 Z M 1439.558594 1880.261719 C 1440.21875 1880.269531 1439.558594 1880.261719 1439.558594 1880.261719 C 1433.878906 1880.261719 1428.351562 1882.070312 1423.75 1885.589844 L 1293.429688 1985.648438 L 1163.058594 1885.648438 C 1158.449219 1882.121094 1152.871094 1880.269531 1147.191406 1880.269531 C 1145.070312 1880.269531 1142.929688 1880.53125 1140.828125 1881.058594 C 1058.699219 1901.738281 960.375 1924.929688 913.378906 2011.039062 C 876.476562 2078.660156 873.570312 2182.96875 875.917969 2286.820312 L 875.929688 2287.109375 C 877.855469 2337.710938 919.4375 2378.121094 970.507812 2378.179688 L 1381.589844 2377.960938 L 1380.570312 2325.460938 L 970.507812 2325.628906 C 947.296875 2325.628906 928.351562 2306.800781 928.285156 2283.609375 L 928.285156 2283.550781 C 928.066406 2274.230469 927.78125 2265.011719 927.640625 2255.910156 L 927.640625 2255.871094 C 926.761719 2164.601562 931.949219 2085.820312 959.136719 2036.019531 C 991.628906 1976.480469 1058.640625 1955.78125 1141.28125 1934.738281 L 1277.589844 2039.160156 C 1282.269531 2042.75 1287.859375 2044.539062 1293.441406 2044.539062 C 1299.039062 2044.539062 1304.640625 2042.738281 1309.320312 2039.140625 L 1445.539062 1934.648438 C 1462.070312 1938.859375 1477.96875 1943.050781 1493.101562 1947.558594 L 1493.109375 1947.550781 C 1510.671875 1933.359375 1529.671875 1921.5 1549.359375 1911.441406 L 1549.441406 1911.398438 C 1515.289062 1898.160156 1479.300781 1889.371094 1445.96875 1880.988281 C 1444.109375 1880.53125 1442.21875 1880.269531 1440.339844 1880.269531 Z M 2372.160156 1880.269531 C 2372.789062 1880.261719 2372.160156 1880.269531 2372.160156 1880.269531 C 2370.28125 1880.230469 2368.429688 1880.53125 2366.570312 1880.988281 C 2333.238281 1889.371094 2297.25 1898.160156 2263.101562 1911.398438 L 2263.179688 1911.441406 C 2282.871094 1921.5 2301.878906 1933.359375 2319.429688 1947.550781 L 2319.441406 1947.558594 C 2334.570312 1943.050781 2350.46875 1938.859375 2367 1934.648438 L 2503.21875 2039.140625 C 2507.898438 2042.738281 2513.5 2044.539062 2519.089844 2044.539062 C 2524.679688 2044.539062 2530.269531 2042.75 2534.949219 2039.160156 L 2671.261719 1934.738281 C 2753.898438 1955.78125 2820.910156 1976.480469 2853.398438 2036.019531 C 2880.589844 2085.820312 2885.78125 2164.601562 2884.898438 2255.871094 L 2884.898438 2255.910156 C 2884.761719 2265.011719 2884.480469 2274.230469 2884.25 2283.550781 L 2884.25 2283.609375 C 2884.191406 2306.800781 2865.25 2325.628906 2842.039062 2325.628906 L 2431.96875 2325.460938 L 2430.960938 2377.960938 L 2842.039062 2378.179688 C 2893.109375 2378.121094 2934.679688 2337.710938 2936.609375 2287.109375 L 2936.621094 2286.820312 C 2938.96875 2182.96875 2936.058594 2078.660156 2899.160156 2011.039062 C 2852.160156 1924.929688 2753.839844 1901.738281 2671.710938 1881.058594 C 2669.609375 1880.53125 2667.46875 1880.269531 2665.351562 1880.269531 C 2659.671875 1880.269531 2654.078125 1882.121094 2649.488281 1885.648438 L 2519.109375 1985.648438 L 2388.789062 1885.589844 C 2384.191406 1882.070312 2378.648438 1880.261719 2372.96875 1880.261719 Z M 2080.511719 1949.5 L 2080.550781 1949.511719 C 2176.308594 1973.800781 2256.019531 1997.78125 2294.589844 2068.480469 L 2294.609375 2068.519531 C 2330.609375 2134.480469 2333.519531 2243.320312 2330.628906 2366.359375 L 2330.628906 2366.410156 C 2330.558594 2389.601562 2311.621094 2408.441406 2288.410156 2408.441406 L 1524.128906 2408.460938 C 1500.921875 2408.441406 1481.980469 2389.601562 1481.910156 2366.410156 L 1481.910156 2366.359375 C 1479.019531 2243.320312 1481.910156 2134.511719 1517.910156 2068.550781 L 1517.941406 2068.480469 C 1556.519531 1997.78125 1636.199219 1973.800781 1731.96875 1949.5 L 1890.140625 2070.910156 L 1890.140625 2070.929688 C 1894.839844 2074.519531 1900.46875 2076.328125 1906.089844 2076.328125 C 1911.71875 2076.328125 1917.328125 2074.53125 1922.039062 2070.921875 Z M 2074.261719 1894.78125 C 2074.558594 1894.769531 2074.261719 1894.78125 2074.261719 1894.78125 C 2068.671875 1894.78125 2063.179688 1896.660156 2058.640625 1900.128906 L 1906.109375 2017.089844 L 1753.890625 1900.128906 C 1749.300781 1896.609375 1743.730469 1894.78125 1738.070312 1894.78125 L 1737.359375 1894.78125 C 1735.410156 1894.75 1733.480469 1895.03125 1731.550781 1895.519531 L 1731.46875 1895.53125 C 1636.410156 1919.449219 1525.128906 1945.910156 1471.941406 2043.390625 L 1471.859375 2043.53125 C 1428.640625 2122.699219 1426.390625 2246.390625 1429.488281 2369.410156 L 1429.511719 2369.898438 C 1431.441406 2420.5 1473.070312 2460.929688 1524.140625 2460.949219 L 2288.410156 2460.980469 C 2339.480469 2460.929688 2381.101562 2420.5 2383.03125 2369.898438 L 2383.050781 2369.410156 C 2386.148438 2246.390625 2383.839844 2122.578125 2340.621094 2043.421875 L 2340.601562 2043.390625 C 2287.410156 1945.910156 2176.070312 1919.429688 2081 1895.519531 L 2080.949219 1895.511719 C 2078.839844 1894.980469 2076.789062 1894.769531 2074.648438 1894.769531 Z M 2074.261719 1894.78125 "/>
</svg>
