<?xml version="1.0" encoding="UTF-8"?>
<svg xmlns="http://www.w3.org/2000/svg" xmlns:xlink="http://www.w3.org/1999/xlink" width="3883" height="3882" viewBox="0 0 3883 3882">
<path fill-rule="nonzero" fill="rgb(100%, 100%, 100%)" fill-opacity="0.2" d="M 0.707031 0.171875 L 3882.441406 0.171875 L 3882.441406 3881.898438 C 2588.53125 3881.898438 1294.621094 3881.898438 0.707031 3881.898438 C 0.707031 2587.988281 0.707031 1294.078125 0.707031 0.171875 "/>
<path fill-rule="nonzero" fill="rgb(13.330078%, 19.604492%, 24.705505%)" fill-opacity="0.2" d="M 2716.300781 686.46875 C 2699.710938 686.46875 2686.269531 699.921875 2686.269531 716.5 L 2686.269531 845.109375 C 2686.269531 861.691406 2699.710938 875.140625 2716.300781 875.140625 C 2732.878906 875.140625 2746.328125 861.691406 2746.328125 845.109375 L 2746.328125 716.5 C 2746.328125 699.921875 2732.878906 686.46875 2716.300781 686.46875 Z M 2987.75 686.578125 L 2987.75 686.589844 C 2971.191406 686.578125 2957.769531 700.011719 2957.769531 716.570312 L 2957.769531 845.179688 C 2957.769531 861.738281 2971.191406 875.160156 2987.75 875.160156 C 3004.320312 875.160156 3017.738281 861.738281 3017.738281 845.179688 L 3017.738281 716.570312 C 3017.738281 700.011719 3004.320312 686.578125 2987.75 686.578125 Z M 2433.378906 686.558594 C 2416.789062 686.558594 2403.351562 700 2403.351562 716.589844 L 2403.351562 845.191406 C 2403.351562 861.78125 2416.789062 875.21875 2433.378906 875.21875 L 2433.378906 875.230469 C 2449.960938 875.21875 2463.410156 861.78125 2463.410156 845.191406 L 2463.410156 716.589844 C 2463.410156 700 2449.960938 686.558594 2433.378906 686.558594 Z M 3236.261719 686.410156 L 3236.261719 686.421875 C 3219.621094 686.410156 3206.128906 699.910156 3206.128906 716.550781 L 3206.128906 845.148438 C 3206.128906 861.789062 3219.621094 875.28125 3236.261719 875.28125 C 3252.898438 875.28125 3266.390625 861.789062 3266.390625 845.148438 L 3266.390625 716.550781 C 3266.390625 699.910156 3252.898438 686.410156 3236.261719 686.410156 Z M 2635.25 1029.121094 C 2627.480469 1029.121094 2620.039062 1032.199219 2614.550781 1037.691406 C 2609.058594 1043.179688 2605.980469 1050.628906 2605.980469 1058.390625 L 2605.980469 1146.160156 C 2605.980469 1153.929688 2609.058594 1161.371094 2614.550781 1166.859375 C 2620.039062 1172.351562 2627.480469 1175.429688 2635.25 1175.429688 L 2760.851562 1175.429688 C 2777.019531 1175.429688 2790.121094 1162.328125 2790.121094 1146.160156 L 2790.121094 1058.390625 C 2790.121094 1042.230469 2777.019531 1029.121094 2760.851562 1029.121094 Z M 2901.308594 1029.121094 C 2893.550781 1029.121094 2886.109375 1032.199219 2880.609375 1037.691406 C 2875.128906 1043.179688 2872.039062 1050.628906 2872.039062 1058.390625 L 2872.039062 1146.160156 C 2872.039062 1153.929688 2875.128906 1161.371094 2880.609375 1166.859375 C 2886.109375 1172.351562 2893.550781 1175.429688 2901.308594 1175.429688 L 3026.910156 1175.429688 C 3043.078125 1175.429688 3056.191406 1162.328125 3056.191406 1146.160156 L 3056.191406 1058.390625 C 3056.191406 1042.230469 3043.078125 1029.121094 3026.910156 1029.121094 Z M 3167.441406 1029.121094 C 3159.679688 1029.121094 3152.238281 1032.199219 3146.75 1037.691406 C 3141.261719 1043.179688 3138.171875 1050.628906 3138.171875 1058.390625 L 3138.171875 1146.160156 C 3138.171875 1153.929688 3141.261719 1161.371094 3146.75 1166.859375 C 3152.230469 1172.351562 3159.679688 1175.429688 3167.441406 1175.429688 L 3293.050781 1175.429688 C 3309.210938 1175.429688 3322.320312 1162.328125 3322.320312 1146.160156 L 3322.320312 1058.390625 C 3322.320312 1042.230469 3309.210938 1029.121094 3293.050781 1029.121094 Z M 2370.078125 1247 C 2362.308594 1247 2354.871094 1250.089844 2349.378906 1255.570312 C 2343.890625 1261.070312 2340.808594 1268.511719 2340.808594 1276.269531 L 2340.808594 1364.039062 C 2340.808594 1371.808594 2343.890625 1379.25 2349.378906 1384.738281 C 2354.871094 1390.230469 2362.308594 1393.320312 2370.078125 1393.320312 L 2495.679688 1393.320312 C 2511.839844 1393.320312 2524.949219 1380.210938 2524.949219 1364.039062 L 2524.949219 1276.269531 C 2524.949219 1260.109375 2511.839844 1247 2495.679688 1247 Z M 2635.25 1247 C 2627.480469 1247 2620.039062 1250.089844 2614.550781 1255.570312 C 2609.058594 1261.070312 2605.980469 1268.511719 2605.980469 1276.269531 L 2605.980469 1364.039062 C 2605.980469 1371.808594 2609.058594 1379.25 2614.550781 1384.738281 C 2620.039062 1390.230469 2627.480469 1393.320312 2635.25 1393.320312 L 2760.851562 1393.320312 C 2777.019531 1393.320312 2790.121094 1380.210938 2790.121094 1364.039062 L 2790.121094 1276.269531 C 2790.121094 1260.109375 2777.019531 1247 2760.851562 1247 Z M 3167.441406 1247 C 3159.679688 1247 3152.230469 1250.089844 3146.75 1255.570312 C 3141.261719 1261.070312 3138.171875 1268.511719 3138.171875 1276.269531 L 3138.171875 1364.039062 C 3138.171875 1371.808594 3141.261719 1379.25 3146.75 1384.738281 C 3152.230469 1390.230469 3159.679688 1393.320312 3167.441406 1393.320312 L 3293.050781 1393.320312 C 3309.210938 1393.320312 3322.320312 1380.210938 3322.320312 1364.039062 L 3322.320312 1276.269531 C 3322.320312 1260.109375 3309.210938 1247 3293.050781 1247 Z M 3038 1246.730469 C 3035.898438 1246.730469 3033.769531 1247.140625 3031.71875 1248.011719 C 3029.859375 1248.789062 3028.21875 1249.878906 3026.839844 1251.191406 L 3026.828125 1251.191406 L 2967.410156 1303.179688 L 2907.480469 1250.75 C 2904.628906 1248.25 2900.898438 1246.738281 2896.820312 1246.738281 C 2887.878906 1246.738281 2880.628906 1253.988281 2880.628906 1262.929688 C 2880.628906 1267.601562 2882.640625 1272.039062 2886.160156 1275.121094 L 2942.820312 1324.699219 L 2886.160156 1374.28125 C 2879.429688 1380.171875 2878.738281 1390.398438 2884.628906 1397.128906 C 2887.839844 1400.789062 2892.320312 1402.660156 2896.820312 1402.660156 C 2900.609375 1402.660156 2904.410156 1401.339844 2907.480469 1398.660156 L 2967.410156 1346.21875 L 3027.339844 1398.660156 C 3030.410156 1401.339844 3034.210938 1402.660156 3038 1402.660156 C 3042.511719 1402.660156 3046.988281 1400.789062 3050.191406 1397.128906 C 3056.078125 1390.398438 3055.398438 1380.171875 3048.671875 1374.28125 L 2992 1324.699219 L 3048.671875 1275.121094 C 3053.921875 1270.519531 3055.640625 1263.078125 3052.929688 1256.648438 C 3050.320312 1250.460938 3044.320312 1246.730469 3038 1246.730469 Z M 2635.25 1468.25 C 2627.480469 1468.25 2620.039062 1471.328125 2614.550781 1476.820312 C 2609.058594 1482.308594 2605.980469 1489.75 2605.980469 1497.519531 L 2605.980469 1585.289062 C 2605.980469 1593.050781 2609.058594 1600.5 2614.550781 1605.980469 C 2620.039062 1611.480469 2627.480469 1614.558594 2635.25 1614.558594 L 2760.851562 1614.558594 C 2777.019531 1614.558594 2790.121094 1601.449219 2790.121094 1585.289062 L 2790.121094 1497.519531 C 2790.121094 1481.351562 2777.019531 1468.25 2760.851562 1468.25 Z M 2901.308594 1468.25 C 2893.550781 1468.25 2886.109375 1471.328125 2880.609375 1476.820312 C 2875.128906 1482.308594 2872.039062 1489.75 2872.039062 1497.519531 L 2872.039062 1585.289062 C 2872.039062 1593.050781 2875.128906 1600.5 2880.609375 1605.980469 C 2886.109375 1611.480469 2893.550781 1614.558594 2901.308594 1614.558594 L 3026.910156 1614.558594 C 3043.078125 1614.558594 3056.191406 1601.449219 3056.191406 1585.289062 L 3056.191406 1497.519531 C 3056.191406 1481.351562 3043.078125 1468.25 3026.910156 1468.25 Z M 3167.441406 1468.25 C 3159.679688 1468.25 3152.230469 1471.328125 3146.75 1476.820312 C 3141.261719 1482.308594 3138.171875 1489.75 3138.171875 1497.519531 L 3138.171875 1585.289062 C 3138.171875 1593.050781 3141.261719 1600.5 3146.75 1605.980469 C 3152.230469 1611.480469 3159.679688 1614.558594 3167.441406 1614.558594 L 3293.050781 1614.558594 C 3309.210938 1614.558594 3322.320312 1601.449219 3322.320312 1585.289062 L 3322.320312 1497.519531 C 3322.320312 1481.351562 3309.210938 1468.25 3293.050781 1468.25 Z M 2370.078125 1468.25 C 2362.308594 1468.25 2354.871094 1471.328125 2349.378906 1476.820312 C 2343.890625 1482.308594 2340.808594 1489.75 2340.808594 1497.519531 L 2340.808594 1585.289062 C 2340.808594 1593.050781 2343.890625 1600.5 2349.378906 1605.980469 C 2354.871094 1611.480469 2362.308594 1614.558594 2370.078125 1614.558594 L 2495.679688 1614.558594 C 2511.839844 1614.558594 2524.949219 1601.449219 2524.949219 1585.289062 L 2524.949219 1497.519531 C 2524.949219 1481.351562 2511.839844 1468.25 2495.679688 1468.25 Z M 3411.660156 991.921875 L 3411.730469 1529.738281 L 3411.710938 1529.738281 C 3409.191406 1582.339844 3405.839844 1617.980469 3389.808594 1634.039062 C 3374.070312 1649.808594 3340.320312 1652.03125 3288.929688 1652.859375 L 2371.5 1651.941406 L 2371.488281 1651.941406 C 2318.339844 1651.621094 2283.539062 1649.679688 2267.960938 1634.039062 C 2252.230469 1618.25 2249.828125 1582.519531 2248.800781 1528.828125 L 2249.851562 991.921875 Z M 2374.058594 762.570312 C 2373.738281 762.570312 2373.421875 762.578125 2373.101562 762.589844 C 2329.28125 764.269531 2268.261719 765.039062 2234.808594 798.25 C 2201.171875 831.648438 2201.050781 892.078125 2199.808594 935.039062 C 2199.808594 935.261719 2199.800781 935.480469 2199.800781 935.710938 L 2198.628906 1528.730469 C 2198.628906 1528.910156 2198.628906 1529.078125 2198.640625 1529.261719 C 2199.480469 1573.53125 2198.980469 1635.871094 2232.429688 1669.441406 C 2266.070312 1703.210938 2327.839844 1701.839844 2371.238281 1702.101562 C 2371.289062 1702.101562 2371.320312 1702.101562 2371.371094 1702.101562 L 3289.101562 1703.03125 C 3289.109375 1703.03125 3289.128906 1703.03125 3289.140625 1703.03125 C 3289.269531 1703.03125 3289.398438 1703.03125 3289.53125 1703.019531 C 3331.839844 1702.339844 3391.839844 1703.019531 3425.308594 1669.480469 C 3458.351562 1636.378906 3459.75 1575.410156 3461.859375 1531.441406 L 3461.871094 1531.160156 L 3461.871094 1531.171875 C 3461.890625 1530.769531 3461.898438 1530.371094 3461.898438 1529.960938 L 3461.820312 936.820312 C 3462.179688 893.03125 3464.441406 830.488281 3430.460938 796.628906 C 3396.679688 762.96875 3333.25 764.03125 3288.308594 763.558594 C 3288.21875 763.550781 3288.128906 763.550781 3288.039062 763.550781 L 3288.019531 763.558594 L 3276.269531 763.558594 L 3276.269531 845.148438 C 3276.269531 867.25 3258.359375 885.160156 3236.261719 885.160156 C 3214.171875 885.160156 3196.261719 867.25 3196.261719 845.148438 L 3196.261719 763.640625 L 3027.730469 763.808594 L 3027.730469 845.179688 C 3027.730469 867.25 3009.828125 885.148438 2987.75 885.148438 C 2965.679688 885.148438 2947.78125 867.25 2947.78125 845.179688 L 2947.78125 763.890625 L 2784.238281 764.058594 L 2756.398438 763.949219 L 2756.398438 845.109375 C 2756.398438 867.25 2738.441406 885.210938 2716.300781 885.210938 C 2694.148438 885.210938 2676.191406 867.25 2676.191406 845.109375 L 2676.191406 763.660156 L 2473.460938 762.929688 L 2473.460938 845.191406 C 2473.460938 867.328125 2455.519531 885.28125 2433.378906 885.28125 C 2411.238281 885.28125 2393.300781 867.328125 2393.300781 845.191406 L 2393.300781 762.640625 L 2374.148438 762.570312 C 2374.121094 762.570312 2374.089844 762.570312 2374.058594 762.570312 Z M 2374.058594 762.570312 "/>
<path fill-rule="nonzero" fill="rgb(13.330078%, 19.604492%, 24.705505%)" fill-opacity="0.2" d="M 1037.359375 659.039062 C 1020.78125 659.039062 1007.328125 672.488281 1007.328125 689.070312 L 1007.328125 817.679688 C 1007.328125 834.261719 1020.78125 847.710938 1037.359375 847.710938 C 1053.949219 847.710938 1067.390625 834.261719 1067.390625 817.679688 L 1067.390625 689.070312 C 1067.390625 672.488281 1053.949219 659.039062 1037.359375 659.039062 Z M 1308.820312 659.148438 C 1292.261719 659.148438 1278.828125 672.578125 1278.828125 689.140625 L 1278.828125 817.75 C 1278.828125 834.308594 1292.261719 847.730469 1308.820312 847.730469 C 1325.378906 847.730469 1338.808594 834.308594 1338.808594 817.75 L 1338.808594 689.140625 C 1338.808594 672.578125 1325.378906 659.148438 1308.820312 659.148438 Z M 754.445312 659.128906 C 737.859375 659.128906 724.414062 672.570312 724.414062 689.160156 L 724.414062 817.769531 C 724.414062 834.351562 737.859375 847.789062 754.445312 847.789062 C 771.03125 847.789062 784.476562 834.351562 784.476562 817.769531 L 784.476562 689.160156 C 784.476562 672.570312 771.03125 659.128906 754.445312 659.128906 Z M 1557.328125 658.980469 C 1540.691406 658.980469 1527.191406 672.480469 1527.191406 689.121094 L 1527.191406 817.71875 C 1527.191406 834.359375 1540.691406 847.851562 1557.328125 847.851562 C 1573.96875 847.851562 1587.460938 834.359375 1587.460938 817.71875 L 1587.460938 689.121094 C 1587.460938 672.480469 1573.96875 658.980469 1557.328125 658.980469 Z M 690.480469 1002.738281 C 682.71875 1002.738281 675.273438 1005.828125 669.78125 1011.320312 C 664.292969 1016.808594 661.207031 1024.25 661.207031 1032.019531 L 661.207031 1119.789062 C 661.207031 1127.550781 664.292969 1135 669.78125 1140.480469 C 675.273438 1145.96875 682.71875 1149.058594 690.480469 1149.058594 L 816.082031 1149.058594 C 832.246094 1149.058594 845.351562 1135.949219 845.351562 1119.789062 L 845.351562 1032.019531 C 845.351562 1015.851562 832.246094 1002.75 816.082031 1002.75 Z M 955.652344 1002.738281 C 947.890625 1002.738281 940.445312 1005.828125 934.953125 1011.320312 C 929.464844 1016.808594 926.378906 1024.25 926.378906 1032.019531 L 926.378906 1119.789062 C 926.378906 1127.550781 929.464844 1135 934.953125 1140.480469 C 940.445312 1145.96875 947.890625 1149.058594 955.652344 1149.058594 L 1081.25 1149.058594 C 1097.421875 1149.058594 1110.53125 1135.949219 1110.53125 1119.789062 L 1110.53125 1032.019531 C 1110.53125 1015.851562 1097.421875 1002.75 1081.25 1002.75 Z M 1221.71875 1002.738281 C 1213.949219 1002.738281 1206.511719 1005.828125 1201.019531 1011.320312 C 1195.53125 1016.808594 1192.441406 1024.25 1192.441406 1032.019531 L 1192.441406 1119.789062 C 1192.441406 1127.550781 1195.53125 1135 1201.019531 1140.480469 C 1206.511719 1145.96875 1213.949219 1149.058594 1221.71875 1149.058594 L 1347.320312 1149.058594 C 1363.480469 1149.058594 1376.589844 1135.949219 1376.589844 1119.789062 L 1376.589844 1032.019531 C 1376.589844 1015.851562 1363.480469 1002.75 1347.320312 1002.75 Z M 1487.851562 1002.738281 C 1480.089844 1002.738281 1472.640625 1005.828125 1467.148438 1011.320312 C 1461.660156 1016.808594 1458.578125 1024.25 1458.578125 1032.019531 L 1458.578125 1119.789062 C 1458.578125 1127.550781 1461.660156 1135 1467.148438 1140.480469 C 1472.640625 1145.96875 1480.089844 1149.058594 1487.851562 1149.058594 L 1613.449219 1149.058594 C 1629.621094 1149.058594 1642.71875 1135.949219 1642.71875 1119.789062 L 1642.71875 1032.019531 C 1642.71875 1015.851562 1629.621094 1002.75 1613.449219 1002.75 Z M 690.480469 1220.621094 C 682.71875 1220.621094 675.273438 1223.710938 669.78125 1229.199219 C 664.292969 1234.691406 661.207031 1242.128906 661.207031 1249.898438 L 661.207031 1337.660156 C 661.207031 1345.429688 664.292969 1352.871094 669.78125 1358.359375 C 675.273438 1363.859375 682.71875 1366.941406 690.480469 1366.941406 L 816.082031 1366.941406 C 832.246094 1366.941406 845.351562 1353.828125 845.351562 1337.660156 L 845.351562 1249.898438 C 845.351562 1233.730469 832.246094 1220.621094 816.082031 1220.621094 Z M 955.652344 1220.621094 C 947.890625 1220.621094 940.445312 1223.710938 934.953125 1229.199219 C 929.464844 1234.691406 926.378906 1242.128906 926.378906 1249.898438 L 926.378906 1337.660156 C 926.378906 1345.429688 929.464844 1352.871094 934.953125 1358.359375 C 940.445312 1363.859375 947.890625 1366.941406 955.652344 1366.941406 L 1081.25 1366.941406 C 1097.421875 1366.941406 1110.53125 1353.828125 1110.53125 1337.660156 L 1110.53125 1249.898438 C 1110.53125 1233.730469 1097.421875 1220.621094 1081.25 1220.621094 Z M 1221.71875 1220.621094 C 1213.949219 1220.621094 1206.511719 1223.710938 1201.019531 1229.199219 C 1195.53125 1234.691406 1192.441406 1242.128906 1192.441406 1249.898438 L 1192.441406 1337.660156 C 1192.441406 1345.429688 1195.53125 1352.871094 1201.019531 1358.359375 C 1206.511719 1363.859375 1213.949219 1366.941406 1221.71875 1366.941406 L 1347.320312 1366.941406 C 1363.480469 1366.941406 1376.589844 1353.828125 1376.589844 1337.660156 L 1376.589844 1249.898438 C 1376.589844 1233.730469 1363.480469 1220.621094 1347.320312 1220.621094 Z M 1487.851562 1220.621094 C 1480.089844 1220.621094 1472.640625 1223.710938 1467.148438 1229.199219 C 1461.660156 1234.691406 1458.578125 1242.128906 1458.578125 1249.898438 L 1458.578125 1337.660156 C 1458.578125 1345.429688 1461.660156 1352.871094 1467.148438 1358.359375 C 1472.640625 1363.859375 1480.089844 1366.941406 1487.851562 1366.941406 L 1613.449219 1366.941406 C 1629.621094 1366.941406 1642.71875 1353.828125 1642.71875 1337.660156 L 1642.71875 1249.898438 C 1642.71875 1233.730469 1629.621094 1220.621094 1613.449219 1220.621094 Z M 690.480469 1441.871094 C 682.71875 1441.871094 675.273438 1444.949219 669.78125 1450.441406 C 664.292969 1455.929688 661.207031 1463.378906 661.207031 1471.140625 L 661.207031 1558.910156 C 661.207031 1566.679688 664.292969 1574.121094 669.78125 1579.609375 C 675.273438 1585.101562 682.71875 1588.179688 690.480469 1588.179688 L 816.082031 1588.179688 C 832.246094 1588.179688 845.351562 1575.078125 845.351562 1558.910156 L 845.351562 1471.140625 C 845.351562 1454.980469 832.246094 1441.871094 816.082031 1441.871094 Z M 955.652344 1441.871094 C 947.890625 1441.871094 940.445312 1444.949219 934.953125 1450.441406 C 929.464844 1455.929688 926.378906 1463.378906 926.378906 1471.140625 L 926.378906 1558.910156 C 926.378906 1566.679688 929.464844 1574.121094 934.953125 1579.609375 C 940.445312 1585.101562 947.890625 1588.179688 955.652344 1588.179688 L 1081.25 1588.179688 C 1097.421875 1588.179688 1110.53125 1575.078125 1110.53125 1558.910156 L 1110.53125 1471.140625 C 1110.53125 1454.980469 1097.421875 1441.871094 1081.25 1441.871094 Z M 1221.71875 1441.871094 C 1213.949219 1441.871094 1206.511719 1444.949219 1201.019531 1450.441406 C 1195.53125 1455.929688 1192.441406 1463.378906 1192.441406 1471.140625 L 1192.441406 1558.910156 C 1192.441406 1566.679688 1195.53125 1574.121094 1201.019531 1579.609375 C 1206.511719 1585.101562 1213.949219 1588.179688 1221.71875 1588.179688 L 1347.320312 1588.179688 C 1363.480469 1588.179688 1376.589844 1575.078125 1376.589844 1558.910156 L 1376.589844 1471.140625 C 1376.589844 1454.980469 1363.480469 1441.871094 1347.320312 1441.871094 Z M 1487.851562 1441.871094 C 1480.089844 1441.871094 1472.640625 1444.949219 1467.148438 1450.441406 C 1461.660156 1455.929688 1458.578125 1463.378906 1458.578125 1471.140625 L 1458.578125 1558.910156 C 1458.578125 1566.679688 1461.660156 1574.121094 1467.148438 1579.609375 C 1472.640625 1585.101562 1480.089844 1588.179688 1487.851562 1588.179688 L 1613.449219 1588.179688 C 1629.621094 1588.179688 1642.71875 1575.078125 1642.71875 1558.910156 L 1642.71875 1471.140625 C 1642.71875 1454.980469 1629.621094 1441.871094 1613.449219 1441.871094 Z M 1732.730469 964.488281 L 1732.800781 1502.308594 L 1732.78125 1502.308594 C 1730.25 1554.910156 1726.898438 1590.558594 1710.871094 1606.609375 C 1695.140625 1622.378906 1661.378906 1624.601562 1610 1625.429688 L 692.566406 1624.511719 L 692.558594 1624.511719 C 639.40625 1624.191406 604.605469 1622.25 589.027344 1606.609375 C 573.296875 1590.820312 570.894531 1555.089844 569.863281 1501.398438 L 569.859375 1501.398438 L 570.917969 964.488281 Z M 695.125 735.140625 C 694.804688 735.140625 694.484375 735.148438 694.164062 735.160156 C 650.339844 736.839844 589.324219 737.609375 555.875 770.820312 C 522.230469 804.21875 522.113281 864.648438 520.875 907.609375 C 520.871094 907.828125 520.867188 908.058594 520.867188 908.28125 L 519.695312 1501.300781 C 519.695312 1501.480469 519.699219 1501.648438 519.699219 1501.820312 C 520.542969 1546.101562 520.046875 1608.441406 553.488281 1642.011719 C 587.132812 1675.789062 648.902344 1674.410156 692.308594 1674.671875 C 692.351562 1674.671875 692.390625 1674.671875 692.433594 1674.671875 L 1610.160156 1675.601562 L 1610.199219 1675.601562 C 1610.339844 1675.601562 1610.46875 1675.601562 1610.589844 1675.589844 C 1652.910156 1674.910156 1712.898438 1675.589844 1746.378906 1642.050781 C 1779.410156 1608.949219 1780.820312 1547.980469 1782.921875 1504.011719 L 1782.929688 1503.738281 C 1782.949219 1503.339844 1782.960938 1502.941406 1782.960938 1502.539062 L 1782.878906 909.390625 C 1783.25 865.601562 1785.5 803.058594 1751.519531 769.199219 C 1717.75 735.539062 1654.320312 736.601562 1609.371094 736.121094 C 1609.28125 736.121094 1609.191406 736.121094 1609.109375 736.121094 L 1609.078125 736.121094 L 1597.328125 736.128906 L 1597.328125 817.71875 C 1597.328125 839.820312 1579.421875 857.730469 1557.328125 857.730469 C 1535.230469 857.730469 1517.320312 839.820312 1517.320312 817.71875 L 1517.320312 736.210938 L 1348.789062 736.378906 L 1348.789062 817.75 C 1348.789062 839.820312 1330.890625 857.71875 1308.820312 857.71875 C 1286.738281 857.71875 1268.851562 839.820312 1268.851562 817.75 L 1268.851562 736.460938 L 1105.308594 736.621094 L 1077.46875 736.519531 L 1077.46875 817.679688 C 1077.46875 839.820312 1059.511719 857.78125 1037.359375 857.78125 C 1015.21875 857.78125 997.257812 839.820312 997.257812 817.679688 L 997.257812 736.230469 L 794.527344 735.5 L 794.527344 817.769531 C 794.527344 839.898438 776.582031 857.851562 754.445312 857.851562 C 732.308594 857.851562 714.363281 839.898438 714.363281 817.769531 L 714.363281 735.210938 L 695.214844 735.140625 C 695.183594 735.140625 695.15625 735.140625 695.125 735.140625 Z M 511.125 829.289062 C 501.148438 833.890625 492.074219 839.78125 484.4375 847.359375 C 450.792969 880.761719 450.671875 941.191406 449.4375 984.148438 C 449.429688 984.371094 449.425781 984.601562 449.425781 984.820312 L 448.257812 1577.839844 C 448.257812 1578.019531 448.257812 1578.191406 448.261719 1578.371094 C 449.101562 1622.640625 448.605469 1684.980469 482.050781 1718.558594 C 515.691406 1752.320312 577.460938 1750.960938 620.867188 1751.210938 C 620.910156 1751.210938 620.953125 1751.210938 620.992188 1751.210938 L 1538.71875 1752.140625 L 1538.75 1752.140625 C 1538.890625 1752.140625 1539.019531 1752.140625 1539.160156 1752.140625 C 1581.46875 1751.449219 1641.460938 1752.128906 1674.929688 1718.589844 C 1683.140625 1710.371094 1689.398438 1700.421875 1694.199219 1689.441406 L 1631.03125 1689.441406 C 1613.050781 1699.558594 1582.148438 1701.269531 1538.558594 1701.980469 L 621.121094 1701.050781 L 621.117188 1701.050781 C 567.964844 1700.730469 533.167969 1698.789062 517.585938 1683.148438 C 501.855469 1667.359375 499.457031 1631.621094 498.425781 1577.921875 L 498.417969 1577.921875 L 499.585938 985.449219 L 499.582031 985.449219 C 500.757812 944.679688 502.628906 914.640625 511.125 895.878906 L 511.132812 895.878906 L 511.132812 829.289062 Z M 511.125 829.289062 "/>
<path fill-rule="nonzero" fill="rgb(13.330078%, 19.604492%, 24.705505%)" fill-opacity="0.2" d="M 2690.460938 2067.078125 C 2673.878906 2067.078125 2660.429688 2080.519531 2660.429688 2097.109375 L 2660.429688 2225.710938 C 2660.429688 2242.300781 2673.878906 2255.738281 2690.460938 2255.738281 C 2707.050781 2255.738281 2720.488281 2242.300781 2720.488281 2225.710938 L 2720.488281 2097.109375 C 2720.488281 2080.519531 2707.050781 2067.078125 2690.460938 2067.078125 Z M 2961.921875 2067.191406 C 2945.359375 2067.191406 2931.929688 2080.609375 2931.929688 2097.179688 L 2931.929688 2225.78125 C 2931.929688 2242.339844 2945.359375 2255.769531 2961.921875 2255.769531 C 2978.480469 2255.769531 2991.910156 2242.339844 2991.910156 2225.78125 L 2991.910156 2097.179688 C 2991.910156 2080.609375 2978.480469 2067.191406 2961.921875 2067.191406 Z M 2407.550781 2067.160156 C 2390.960938 2067.160156 2377.519531 2080.609375 2377.519531 2097.191406 L 2377.519531 2225.800781 C 2377.519531 2242.378906 2390.960938 2255.828125 2407.550781 2255.828125 C 2424.128906 2255.828125 2437.578125 2242.378906 2437.578125 2225.800781 L 2437.578125 2097.191406 C 2437.578125 2080.609375 2424.128906 2067.160156 2407.550781 2067.160156 Z M 3210.429688 2067.019531 C 3193.789062 2067.019531 3180.300781 2080.511719 3180.300781 2097.148438 L 3180.300781 2225.75 C 3180.300781 2242.390625 3193.789062 2255.890625 3210.429688 2255.890625 C 3227.070312 2255.890625 3240.558594 2242.390625 3240.558594 2225.75 L 3240.558594 2097.148438 C 3240.558594 2080.511719 3227.070312 2067.019531 3210.429688 2067.019531 Z M 2609.410156 2409.71875 L 2609.410156 2409.730469 C 2601.648438 2409.730469 2594.210938 2412.808594 2588.710938 2418.300781 C 2583.230469 2423.789062 2580.140625 2431.230469 2580.140625 2439 L 2580.140625 2526.769531 C 2580.140625 2534.53125 2583.230469 2541.980469 2588.710938 2547.460938 C 2594.210938 2552.949219 2601.648438 2556.039062 2609.410156 2556.039062 L 2735.019531 2556.039062 C 2751.179688 2556.039062 2764.289062 2542.929688 2764.289062 2526.769531 L 2764.289062 2439 C 2764.289062 2422.828125 2751.179688 2409.730469 2735.019531 2409.730469 Z M 2875.480469 2409.71875 L 2875.480469 2409.730469 C 2867.710938 2409.730469 2860.269531 2412.808594 2854.78125 2418.300781 C 2849.289062 2423.789062 2846.210938 2431.230469 2846.210938 2439 L 2846.210938 2526.769531 C 2846.210938 2534.53125 2849.289062 2541.980469 2854.78125 2547.460938 C 2860.269531 2552.949219 2867.71875 2556.039062 2875.480469 2556.039062 L 3001.078125 2556.039062 C 3017.25 2556.039062 3030.351562 2542.929688 3030.351562 2526.769531 L 3030.351562 2439 C 3030.351562 2422.828125 3017.25 2409.730469 3001.078125 2409.730469 Z M 3141.609375 2409.71875 L 3141.609375 2409.730469 C 3133.851562 2409.730469 3126.398438 2412.808594 3120.910156 2418.300781 C 3115.421875 2423.789062 3112.339844 2431.230469 3112.339844 2439 L 3112.339844 2526.769531 C 3112.339844 2534.53125 3115.421875 2541.980469 3120.910156 2547.460938 C 3126.398438 2552.949219 3133.851562 2556.039062 3141.609375 2556.039062 L 3267.210938 2556.039062 C 3283.378906 2556.039062 3296.480469 2542.929688 3296.480469 2526.769531 L 3296.480469 2439 C 3296.480469 2422.828125 3283.378906 2409.730469 3267.210938 2409.730469 Z M 2344.238281 2409.71875 L 2344.238281 2409.730469 C 2336.480469 2409.730469 2329.039062 2412.808594 2323.539062 2418.300781 C 2318.058594 2423.789062 2314.96875 2431.230469 2314.96875 2439 L 2314.96875 2526.769531 C 2314.96875 2534.53125 2318.058594 2541.980469 2323.539062 2547.460938 C 2329.039062 2552.949219 2336.480469 2556.039062 2344.238281 2556.039062 L 2469.839844 2556.039062 C 2486.011719 2556.039062 2499.121094 2542.929688 2499.121094 2526.769531 L 2499.121094 2439 C 2499.121094 2422.828125 2486.011719 2409.730469 2469.839844 2409.730469 Z M 2344.238281 2627.609375 C 2336.480469 2627.609375 2329.039062 2630.691406 2323.539062 2636.179688 C 2318.058594 2641.671875 2314.96875 2649.109375 2314.96875 2656.878906 L 2314.96875 2744.640625 C 2314.96875 2752.410156 2318.058594 2759.851562 2323.539062 2765.339844 C 2329.039062 2770.839844 2336.480469 2773.921875 2344.238281 2773.921875 L 2469.839844 2773.921875 C 2486.011719 2773.921875 2499.121094 2760.808594 2499.121094 2744.640625 L 2499.121094 2656.878906 C 2499.121094 2640.710938 2486.011719 2627.609375 2469.839844 2627.609375 Z M 2609.410156 2627.609375 C 2601.648438 2627.609375 2594.210938 2630.691406 2588.710938 2636.179688 C 2583.230469 2641.671875 2580.140625 2649.109375 2580.140625 2656.878906 L 2580.140625 2744.640625 C 2580.140625 2752.410156 2583.230469 2759.851562 2588.710938 2765.351562 C 2594.210938 2770.839844 2601.648438 2773.921875 2609.410156 2773.921875 L 2735.019531 2773.921875 C 2751.179688 2773.921875 2764.289062 2760.808594 2764.289062 2744.640625 L 2764.289062 2656.878906 C 2764.289062 2640.710938 2751.179688 2627.609375 2735.019531 2627.609375 Z M 2875.480469 2627.609375 C 2867.710938 2627.609375 2860.269531 2630.691406 2854.78125 2636.179688 C 2849.289062 2641.671875 2846.210938 2649.109375 2846.210938 2656.878906 L 2846.210938 2744.640625 C 2846.210938 2752.410156 2849.289062 2759.851562 2854.78125 2765.351562 C 2860.269531 2770.839844 2867.71875 2773.921875 2875.480469 2773.921875 L 2984.570312 2773.921875 C 2996.078125 2746.609375 3011.570312 2721.328125 3030.339844 2698.828125 L 3030.351562 2698.828125 L 3030.351562 2656.878906 C 3030.351562 2640.710938 3017.25 2627.609375 3001.078125 2627.609375 Z M 2964.070312 2848.851562 L 2964.089844 2848.851562 Z M 3258.789062 2870.738281 C 3269.019531 2870.738281 3277.320312 2879.039062 3277.320312 2889.277344 C 3277.320312 2899.515625 3269.019531 2907.816406 3258.789062 2907.816406 C 3248.550781 2907.816406 3240.25 2899.515625 3240.25 2889.277344 C 3240.25 2879.039062 3248.550781 2870.738281 3258.789062 2870.738281 Z M 3255.929688 2697.089844 C 3244.378906 2697.089844 3235.019531 2706.449219 3235.019531 2718 L 3235.019531 2856.980469 L 3235 2856.980469 C 3224.488281 2864.738281 3217.960938 2877.480469 3218.738281 2891.5 L 3218.738281 2891.503906 C 3219.929688 2912.859375 3237.621094 2929.382812 3258.75 2929.382812 C 3259.5 2929.382812 3260.25 2929.363281 3261.011719 2929.320312 C 3266.101562 2929.039062 3270.921875 2927.816406 3275.308594 2925.835938 L 3275.320312 2925.835938 L 3358.21875 2977.402344 C 3361.660156 2979.539062 3365.46875 2980.5625 3369.238281 2980.5625 C 3376.230469 2980.5625 3383.058594 2977.058594 3387.019531 2970.691406 C 3393.121094 2960.882812 3390.121094 2947.988281 3380.308594 2941.886719 L 3298.859375 2891.222656 L 3298.851562 2891.222656 C 3298.910156 2889.847656 3298.910156 2888.457031 3298.828125 2887.054688 L 3298.828125 2887.050781 C 3298.011719 2872.21875 3289.230469 2859.730469 3276.859375 2853.46875 L 3276.851562 2853.46875 L 3276.851562 2718 C 3276.851562 2706.449219 3267.480469 2697.089844 3255.929688 2697.089844 Z M 2344.238281 2848.851562 C 2336.480469 2848.851562 2329.039062 2851.929688 2323.539062 2857.421875 C 2318.058594 2862.910156 2314.96875 2870.359375 2314.96875 2878.121094 L 2314.96875 2965.890625 C 2314.96875 2973.65625 2318.058594 2981.101562 2323.539062 2986.589844 C 2329.039062 2992.082031 2336.480469 2995.164062 2344.238281 2995.164062 L 2469.839844 2995.164062 C 2486.011719 2995.164062 2499.121094 2982.058594 2499.121094 2965.890625 L 2499.121094 2878.121094 C 2499.121094 2861.960938 2486.011719 2848.851562 2469.839844 2848.851562 Z M 2609.410156 2848.851562 C 2601.648438 2848.851562 2594.210938 2851.929688 2588.710938 2857.421875 C 2583.230469 2862.910156 2580.140625 2870.359375 2580.140625 2878.121094 L 2580.140625 2965.890625 C 2580.140625 2973.65625 2583.230469 2981.101562 2588.710938 2986.589844 C 2594.210938 2992.082031 2601.648438 2995.164062 2609.410156 2995.164062 L 2735.019531 2995.164062 C 2751.179688 2995.164062 2764.289062 2982.058594 2764.289062 2965.890625 L 2764.289062 2878.121094 C 2764.289062 2861.960938 2751.179688 2848.851562 2735.019531 2848.851562 Z M 2875.480469 2848.851562 C 2867.710938 2848.851562 2860.269531 2851.929688 2854.78125 2857.429688 C 2849.289062 2862.910156 2846.210938 2870.359375 2846.210938 2878.121094 L 2846.210938 2965.890625 C 2846.210938 2973.65625 2849.289062 2981.101562 2854.78125 2986.589844 C 2860.269531 2992.082031 2867.71875 2995.164062 2875.480469 2995.164062 L 2980.769531 2995.164062 C 2969.839844 2966.457031 2963.199219 2935.554688 2961.691406 2903.203125 C 2960.820312 2884.71875 2961.660156 2866.550781 2964.070312 2848.851562 Z M 2348.230469 2143.179688 C 2348.210938 2143.179688 2348.191406 2143.179688 2348.179688 2143.179688 C 2347.871094 2143.179688 2347.570312 2143.179688 2347.269531 2143.191406 C 2303.441406 2144.871094 2242.429688 2145.640625 2208.980469 2178.851562 C 2175.328125 2212.25 2175.210938 2272.691406 2173.980469 2315.640625 C 2173.96875 2315.871094 2173.96875 2316.089844 2173.96875 2316.308594 L 2172.800781 2909.335938 C 2172.800781 2909.511719 2172.800781 2909.683594 2172.800781 2909.859375 C 2173.640625 2954.136719 2173.148438 3016.476562 2206.589844 3050.046875 C 2240.230469 3083.816406 2302 3082.449219 2345.410156 3082.707031 C 2345.449219 3082.707031 2345.488281 3082.707031 2345.539062 3082.707031 L 3033.441406 3083.402344 C 3020.140625 3067.984375 3008.390625 3051.175781 2998.429688 3033.203125 L 2998.449219 3033.203125 L 2998.429688 3033.203125 L 2998.441406 3033.203125 L 2998.429688 3033.203125 L 2345.671875 3032.542969 L 2345.660156 3032.542969 C 2292.511719 3032.226562 2257.710938 3030.28125 2242.128906 3014.644531 C 2226.398438 2998.851562 2224 2963.117188 2222.960938 2909.433594 L 2224.019531 2372.53125 L 3385.828125 2372.53125 L 3385.859375 2620.320312 L 3385.878906 2620.320312 C 3403.609375 2628.71875 3420.398438 2638.820312 3436.03125 2650.429688 L 3435.980469 2317.421875 C 3436.351562 2273.640625 3438.601562 2211.101562 3404.621094 2177.230469 C 3370.851562 2143.578125 3307.421875 2144.640625 3262.46875 2144.160156 C 3262.378906 2144.160156 3262.289062 2144.160156 3262.210938 2144.160156 L 3262.179688 2144.160156 L 3250.429688 2144.171875 L 3250.429688 2225.75 C 3250.429688 2247.851562 3232.519531 2265.761719 3210.429688 2265.761719 C 3188.339844 2265.761719 3170.429688 2247.851562 3170.429688 2225.75 L 3170.429688 2144.25 L 3001.890625 2144.421875 L 3001.890625 2225.78125 C 3001.890625 2247.859375 2984 2265.75 2961.921875 2265.75 C 2939.839844 2265.75 2921.949219 2247.859375 2921.949219 2225.78125 L 2921.949219 2144.5 L 2758.410156 2144.660156 L 2730.570312 2144.558594 L 2730.570312 2225.710938 C 2730.570312 2247.859375 2712.609375 2265.808594 2690.460938 2265.808594 C 2668.320312 2265.808594 2650.359375 2247.859375 2650.359375 2225.710938 L 2650.359375 2144.269531 L 2447.628906 2143.539062 L 2447.628906 2225.800781 C 2447.628906 2247.941406 2429.679688 2265.878906 2407.550781 2265.878906 C 2385.410156 2265.878906 2367.460938 2247.941406 2367.460938 2225.800781 L 2367.460938 2143.25 L 2348.320312 2143.179688 C 2348.289062 2143.179688 2348.261719 2143.179688 2348.230469 2143.179688 Z M 3033.449219 3083.402344 L 3033.441406 3083.402344 Z M 3258.960938 2667.679688 C 3376.589844 2667.679688 3474.589844 2760.191406 3480.148438 2878.898438 C 3485.878906 3001.152344 3391.421875 3104.898438 3269.160156 3110.628906 C 3265.628906 3110.796875 3262.109375 3110.878906 3258.609375 3110.878906 C 3140.988281 3110.878906 3042.980469 3018.371094 3037.421875 2899.65625 C 3031.691406 2777.410156 3126.148438 2673.660156 3248.410156 2667.929688 C 3251.941406 2667.761719 3255.460938 2667.679688 3258.960938 2667.679688 Z M 3259 2621.050781 C 3258.980469 2621.050781 3258.96875 2621.050781 3258.949219 2621.050781 C 3254.730469 2621.050781 3250.488281 2621.148438 3246.230469 2621.351562 C 3098.25 2628.289062 2983.910156 2753.859375 2990.839844 2901.835938 L 2990.839844 2901.839844 C 2997.578125 3045.535156 3116.199219 3157.507812 3258.570312 3157.507812 C 3262.808594 3157.507812 3267.070312 3157.410156 3271.351562 3157.207031 C 3419.328125 3150.273438 3533.671875 3024.695312 3526.730469 2876.71875 C 3520 2733.019531 3401.371094 2621.050781 3259 2621.050781 Z M 3259 2621.050781 "/>
<path fill-rule="nonzero" fill="rgb(13.330078%, 19.604492%, 24.705505%)" fill-opacity="0.2" d="M 1017.949219 2104.03125 C 1001.359375 2104.03125 987.917969 2117.46875 987.917969 2134.058594 L 987.917969 2262.660156 C 987.917969 2279.25 1001.359375 2292.691406 1017.949219 2292.691406 C 1034.53125 2292.691406 1047.980469 2279.25 1047.980469 2262.660156 L 1047.980469 2134.058594 C 1047.980469 2117.46875 1034.53125 2104.03125 1017.949219 2104.03125 Z M 1289.410156 2104.140625 C 1272.839844 2104.140625 1259.421875 2117.570312 1259.421875 2134.128906 L 1259.421875 2262.730469 C 1259.421875 2279.289062 1272.839844 2292.71875 1289.410156 2292.71875 C 1305.96875 2292.71875 1319.390625 2279.289062 1319.390625 2262.730469 L 1319.390625 2134.128906 C 1319.390625 2117.570312 1305.96875 2104.140625 1289.410156 2104.140625 Z M 735.03125 2104.121094 C 718.445312 2104.121094 705 2117.558594 705 2134.140625 L 705 2262.75 C 705 2279.339844 718.445312 2292.78125 735.03125 2292.78125 C 751.617188 2292.78125 765.0625 2279.339844 765.0625 2262.75 L 765.0625 2134.140625 C 765.0625 2117.558594 751.617188 2104.121094 735.03125 2104.121094 Z M 1537.910156 2103.96875 C 1521.269531 2103.96875 1507.78125 2117.460938 1507.78125 2134.101562 L 1507.78125 2262.710938 C 1507.78125 2279.351562 1521.269531 2292.839844 1537.910156 2292.839844 C 1554.558594 2292.839844 1568.050781 2279.351562 1568.050781 2262.710938 L 1568.050781 2134.101562 C 1568.050781 2117.460938 1554.558594 2103.96875 1537.910156 2103.96875 Z M 1368.429688 2516.378906 C 1352.460938 2516.378906 1336.558594 2522.921875 1325.070312 2535.761719 L 1062.128906 2829.539062 L 942.574219 2667.039062 C 931.175781 2651.550781 913.550781 2643.351562 895.683594 2643.351562 C 883.714844 2643.351562 871.644531 2647.03125 861.265625 2654.660156 C 835.390625 2673.699219 829.851562 2710.109375 848.886719 2735.980469 L 1010.871094 2956.148438 C 1021.25 2970.257812 1037.441406 2978.933594 1054.929688 2979.773438 C 1055.871094 2979.816406 1056.800781 2979.839844 1057.71875 2979.839844 C 1074.21875 2979.839844 1090 2972.824219 1101.058594 2960.46875 L 1411.738281 2613.328125 C 1433.160156 2589.390625 1431.128906 2552.628906 1407.191406 2531.210938 C 1396.089844 2521.269531 1382.230469 2516.378906 1368.429688 2516.378906 Z M 1713.308594 2409.480469 L 1713.390625 2947.296875 L 1713.371094 2947.300781 C 1710.839844 2999.898438 1707.488281 3035.539062 1691.460938 3051.601562 C 1675.71875 3067.363281 1641.96875 3069.582031 1590.589844 3070.421875 L 673.152344 3069.496094 L 673.144531 3069.496094 C 619.992188 3069.179688 585.195312 3067.234375 569.613281 3051.597656 C 553.882812 3035.804688 551.484375 3000.070312 550.453125 2946.386719 L 550.445312 2946.386719 L 551.503906 2409.480469 Z M 675.710938 2180.128906 C 675.390625 2180.128906 675.070312 2180.140625 674.75 2180.148438 C 630.929688 2181.828125 569.914062 2182.589844 536.460938 2215.808594 C 502.816406 2249.210938 502.699219 2309.640625 501.460938 2352.589844 C 501.457031 2352.820312 501.453125 2353.039062 501.453125 2353.269531 L 500.285156 2946.285156 C 500.28125 2946.460938 500.285156 2946.636719 500.289062 2946.8125 C 501.128906 2991.089844 500.632812 3053.425781 534.074219 3087 C 567.71875 3120.769531 629.488281 3119.402344 672.894531 3119.660156 C 672.9375 3119.660156 672.976562 3119.660156 673.019531 3119.660156 L 1590.75 3120.585938 L 1590.789062 3120.585938 C 1590.921875 3120.585938 1591.050781 3120.582031 1591.179688 3120.582031 C 1633.5 3119.894531 1693.480469 3120.578125 1726.960938 3087.039062 C 1760 3053.9375 1761.410156 2992.964844 1763.511719 2949 L 1763.511719 2948.996094 L 1763.519531 2948.722656 C 1763.539062 2948.320312 1763.550781 2947.921875 1763.550781 2947.523438 L 1763.46875 2354.371094 C 1763.828125 2310.589844 1766.089844 2248.050781 1732.109375 2214.179688 C 1698.339844 2180.53125 1634.898438 2181.589844 1589.960938 2181.109375 C 1589.871094 2181.109375 1589.78125 2181.109375 1589.691406 2181.109375 L 1589.660156 2181.109375 L 1577.921875 2181.121094 L 1577.921875 2262.710938 C 1577.921875 2284.800781 1560.011719 2302.710938 1537.910156 2302.710938 C 1515.820312 2302.710938 1497.910156 2284.800781 1497.910156 2262.710938 L 1497.910156 2181.199219 L 1329.378906 2181.371094 L 1329.378906 2262.730469 C 1329.378906 2284.808594 1311.480469 2302.699219 1289.410156 2302.699219 C 1267.328125 2302.699219 1249.429688 2284.808594 1249.429688 2262.730469 L 1249.429688 2181.449219 L 1085.890625 2181.609375 L 1058.050781 2181.511719 L 1058.050781 2262.660156 C 1058.050781 2284.808594 1040.101562 2302.769531 1017.949219 2302.769531 C 995.800781 2302.769531 977.847656 2284.808594 977.847656 2262.660156 L 977.847656 2181.21875 L 775.113281 2180.488281 L 775.113281 2262.75 C 775.113281 2284.890625 757.167969 2302.828125 735.03125 2302.828125 C 712.894531 2302.828125 694.949219 2284.890625 694.949219 2262.75 L 694.949219 2180.199219 L 675.800781 2180.128906 C 675.773438 2180.128906 675.742188 2180.128906 675.710938 2180.128906 Z M 675.710938 2180.128906 "/>
</svg>
