<?xml version="1.0" encoding="UTF-8"?>
<svg xmlns="http://www.w3.org/2000/svg" xmlns:xlink="http://www.w3.org/1999/xlink" width="3769" height="3769" viewBox="0 0 3769 3769">
<path fill-rule="nonzero" fill="rgb(100%, 100%, 100%)" fill-opacity="0.2" d="M 0 0 L 0 3768.5 L 3768.441406 3768.449219 L 3768.441406 0.0585938 L 0 0 L 0 0.0585938 Z M 0 0 "/>
<path fill-rule="nonzero" fill="rgb(13.330078%, 19.604492%, 24.705505%)" fill-opacity="0.2" d="M 1903.628906 1054.160156 L 1903.539062 1054.160156 C 1791.910156 1054.160156 1684.738281 1073.328125 1585.128906 1108.511719 L 1656.101562 1452.289062 C 1715.71875 1435.75 1778.359375 1427.089844 1842.96875 1427.089844 L 1845.53125 1427.109375 C 1879.421875 1427.089844 1912.769531 1429.621094 1945.421875 1434.421875 L 2069.421875 1068.390625 C 2015.699219 1058.980469 1960.441406 1054.160156 1904.050781 1054.160156 Z M 1518.519531 1134.941406 L 1518.511719 1134.941406 C 1394.28125 1189.648438 1283.890625 1270.019531 1194.039062 1369.328125 L 1367.871094 1612.058594 C 1432.148438 1553.539062 1506.679688 1506.75 1588.28125 1474.851562 Z M 2015.300781 1448.441406 L 2015.320312 1448.449219 C 2107.960938 1471.898438 2193.570312 1513.941406 2268.199219 1570.511719 C 2288.890625 1586.191406 2308.730469 1602.988281 2327.648438 1620.820312 L 2684.070312 1456.648438 C 2670.179688 1436.921875 2655.449219 1417.808594 2640.03125 1399.28125 L 2640.011719 1399.261719 C 2512.570312 1246.109375 2338.261719 1133.46875 2139.140625 1083.191406 Z M 1147.238281 1425.269531 L 1147.230469 1425.289062 C 1075.941406 1517.121094 1021.03125 1622.378906 986.875 1736.601562 L 1190.691406 1857.199219 C 1222.738281 1785.460938 1265.628906 1719.96875 1317.171875 1662.910156 Z M 1902.671875 1949.53125 L 1902.679688 1949.53125 C 1935.601562 1949.53125 1962.269531 1976.21875 1962.269531 2009.140625 C 1962.269531 2042.070312 1935.578125 2068.800781 1902.648438 2068.800781 C 1902.628906 2068.800781 1902.628906 2068.800781 1902.628906 2068.800781 C 1869.691406 2068.769531 1843 2042.078125 1843 2009.148438 C 1843 1976.21875 1869.691406 1949.53125 1902.628906 1949.53125 Z M 968.5625 1807.980469 L 968.558594 1808.011719 C 954.359375 1873.351562 946.882812 1941.429688 946.882812 2011.261719 C 946.878906 2035.839844 947.808594 2060.199219 949.628906 2084.320312 L 1127.289062 2110.980469 C 1131.910156 2045.910156 1144.699219 1983.210938 1164.609375 1923.960938 Z M 2781.710938 1461.601562 L 2781.648438 1461.601562 C 2775.578125 1461.601562 2770.039062 1463.640625 2763.941406 1466.449219 L 1960.550781 1836.488281 C 1942.359375 1830.390625 1922.890625 1827.089844 1902.640625 1827.089844 C 1902.53125 1827.089844 1902.460938 1827.089844 1902.460938 1827.089844 C 1801.980469 1827.058594 1720.609375 1908.660156 1720.601562 2009.128906 C 1720.601562 2109.671875 1802.089844 2191.140625 1902.609375 2191.210938 C 1902.640625 2191.210938 1902.660156 2191.210938 1902.660156 2191.210938 C 1991.070312 2191.148438 2064.679688 2128.140625 2081.160156 2044.578125 C 2081.171875 2044.558594 2081.199219 2044.539062 2081.199219 2044.539062 C 2087.648438 2039.890625 2799.339844 1527.78125 2799.339844 1527.78125 C 2814.019531 1517.210938 2821.878906 1498.96875 2814.128906 1482.121094 C 2809.941406 1473.03125 2802.359375 1466.570312 2793.589844 1463.539062 L 2793.480469 1463.5 C 2789.738281 1462.171875 2785.769531 1461.601562 2781.808594 1461.601562 Z M 957.902344 2157.191406 L 957.902344 2157.21875 C 969.085938 2230.171875 988.558594 2300.648438 1015.339844 2367.410156 L 1144.609375 2336.558594 C 1133.21875 2286.738281 1126.691406 2235.238281 1125.550781 2182.328125 Z M 1044.558594 2433.03125 L 1044.570312 2433.050781 C 1070.390625 2485.519531 1100.878906 2535.320312 1135.488281 2581.871094 L 1210.371094 2514.988281 C 1192.058594 2479.601562 1176.410156 2442.78125 1163.71875 2404.550781 Z M 1179.769531 2637.070312 L 1179.769531 2637.101562 C 1199.171875 2659.5 1219.480469 2681.03125 1240.871094 2701.578125 L 1240.890625 2701.601562 C 1248.140625 2709.480469 1258.550781 2714.460938 1270.128906 2714.46875 C 1270.140625 2714.46875 1270.140625 2714.46875 1270.140625 2714.46875 C 1292.039062 2714.441406 1309.789062 2696.679688 1309.789062 2674.78125 L 1309.789062 2674.75 C 1309.789062 2665.109375 1306.351562 2656.269531 1300.628906 2649.390625 L 1300.289062 2649.011719 C 1281.140625 2626.039062 1263.261719 2602.148438 1246.890625 2577.070312 Z M 1179.769531 2637.070312 "/>
</svg>
